<?xml version="1.0" standalone="no"?>
<!DOCTYPE svg PUBLIC "-//W3C//DTD SVG 20010904//EN"
 "http://www.w3.org/TR/2001/REC-SVG-20010904/DTD/svg10.dtd">
<svg version="1.0" xmlns="http://www.w3.org/2000/svg"
 width="571.000000pt" height="571.000000pt" viewBox="0 0 571.000000 571.000000"
 preserveAspectRatio="xMidYMid meet">
<metadata>
Created by potrace 1.14, written by Peter Selinger 2001-2017
</metadata>
<g transform="translate(0.000000,571.000000) scale(0.100000,-0.100000)"
fill="#000000" stroke="none">
<path d="M267 5298 c-158 -34 -230 -164 -230 -418 0 -70 12 -270 19 -303 2
-11 6 -45 9 -76 9 -103 25 -160 46 -172 17 -9 202 -14 367 -10 l32 1 0 60 0
60 -37 1 c-21 0 -91 0 -155 0 l-117 0 -7 47 c-3 26 -8 56 -10 66 -20 113 -24
437 -5 503 23 82 92 132 165 119 31 -6 33 -4 55 45 27 58 22 69 -35 76 -22 2
-43 5 -49 7 -5 1 -27 -1 -48 -6z"/>
<path d="M820 5297 c-30 -5 -56 -10 -58 -12 -2 -2 4 -30 13 -63 17 -59 17 -60
47 -52 46 14 159 5 203 -15 57 -26 102 -75 116 -126 22 -77 19 -264 -7 -424
-4 -22 -8 -47 -9 -55 -14 -88 -19 -100 -39 -105 -11 -3 -123 -4 -249 -2 l-227
2 -1 -25 c0 -14 -1 -40 -2 -58 -1 -19 2 -36 6 -39 12 -8 540 -7 564 1 28 9 43
47 59 146 3 19 9 51 14 70 4 19 11 62 15 95 4 33 9 75 11 93 14 92 6 265 -16
340 -47 165 -234 262 -440 229z"/>
<path d="M100 4103 c-44 -15 -76 -52 -89 -101 -5 -22 -9 -366 -8 -844 2 -798
2 -807 23 -834 49 -66 59 -69 247 -71 95 -1 186 3 204 8 18 6 43 24 57 40 14
16 26 29 28 29 2 0 4 -30 6 -68 2 -37 5 -76 7 -87 2 -11 4 -37 4 -58 l1 -39
43 6 c23 3 52 5 63 5 17 1 21 6 19 29 -4 45 -15 183 -21 257 -3 39 -7 86 -10
107 -4 30 3 49 42 115 71 118 69 118 94 32 12 -41 38 -126 57 -189 l36 -115 2
-890 c2 -490 3 -900 4 -913 1 -12 19 -42 40 -65 l40 -42 102 -3 c124 -5 170 7
203 51 19 25 59 156 161 532 161 594 145 539 155 529 5 -5 11 -229 15 -499 7
-550 7 -550 79 -594 34 -22 45 -23 190 -19 149 3 155 4 181 28 46 43 51 58 90
295 3 17 7 41 10 55 3 14 30 169 60 345 31 176 74 424 96 550 22 127 42 241
45 255 2 14 11 68 20 120 8 52 19 105 24 118 l10 22 670 0 670 0 0 30 0 30
233 -1 c127 -1 224 -3 215 -6 -10 -2 -18 -6 -18 -7 0 -2 129 -385 286 -852
157 -467 289 -861 294 -875 27 -87 70 -109 220 -109 130 0 168 13 202 69 l23
36 2 1525 c1 839 2 1557 3 1595 l0 70 213 0 212 -1 26 26 c23 23 25 31 23 115
-1 50 -2 93 -3 96 0 3 -28 6 -61 7 l-60 0 0 -59 0 -59 -175 0 c-160 0 -175 2
-175 18 -2 137 -7 172 -34 207 -16 20 -40 41 -54 47 -41 17 -4993 18 -5042 1z"/>
<path d="M3837 2012 c-18 -4 -18 -16 -2 -187 2 -27 7 -79 10 -115 2 -36 9
-119 15 -185 5 -66 12 -156 15 -200 4 -44 8 -96 10 -115 2 -19 7 -75 10 -125
4 -49 8 -101 10 -115 2 -14 7 -70 10 -125 4 -55 8 -111 10 -125 2 -14 6 -70
10 -125 8 -116 19 -161 45 -175 10 -6 91 -10 180 -10 205 0 204 -1 214 146 4
54 9 119 11 144 4 48 11 132 20 270 3 47 8 99 10 115 4 29 18 224 19 275 1 14
-5 26 -11 26 -7 1 -22 2 -32 3 -20 1 -430 518 -436 549 -2 9 -4 32 -4 50 -1
33 -1 33 -48 30 -27 -1 -56 -4 -66 -6z"/>
</g>
</svg>
